<?xml version="1.0" standalone="no"?>
<!DOCTYPE svg PUBLIC "-//W3C//DTD SVG 20010904//EN"
 "http://www.w3.org/TR/2001/REC-SVG-20010904/DTD/svg10.dtd">
<svg version="1.0" xmlns="http://www.w3.org/2000/svg"
 width="960.000000pt" height="1280.000000pt" viewBox="0 0 960.000000 1280.000000"
 preserveAspectRatio="xMidYMid meet">
<metadata>
Created by potrace 1.16, written by Peter Selinger 2001-2019
</metadata>
<g transform="translate(0.000000,1280.000000) scale(0.100000,-0.100000)"
fill="#000000" stroke="none">
<path d="M4419 10736 c-14 -29 13 -76 43 -76 17 0 19 5 14 26 -6 22 -5 24 13
15 10 -6 36 -13 56 -15 48 -6 60 -18 46 -44 -12 -22 -76 -38 -110 -27 -21 6
-112 -20 -148 -43 -32 -20 -29 -42 9 -74 18 -14 30 -29 27 -32 -3 -4 -24 9
-45 29 -57 51 -104 44 -104 -15 0 -19 8 -30 26 -39 24 -11 25 -13 11 -34 -8
-12 -23 -22 -33 -22 -15 0 -19 7 -17 29 2 32 -16 24 -22 -10 -2 -11 -4 -21 -4
-22 -1 -2 -17 16 -37 40 -54 65 -55 66 -48 29 6 -27 4 -33 -7 -29 -8 3 -22 -1
-31 -10 -14 -12 -20 -12 -33 -2 -19 16 -20 3 0 -16 13 -14 13 -19 -1 -46 -16
-32 -14 -45 7 -32 7 4 34 8 59 8 39 1 49 -3 57 -21 10 -21 8 -23 -15 -25 -15
-1 -38 -1 -50 0 -19 1 -22 -3 -17 -16 19 -43 18 -62 -3 -62 -14 0 -26 16 -46
61 -25 57 -28 60 -59 58 -17 -1 -53 -1 -79 0 -45 1 -50 4 -88 52 -22 28 -40
46 -40 40 0 -6 -7 -11 -15 -11 -8 0 -24 -9 -35 -20 -16 -16 -20 -17 -20 -5 0
8 -4 15 -10 15 -29 0 -63 18 -56 29 6 9 67 2 82 -10 6 -5 14 -6 17 -2 20 19
-5 56 -54 81 -27 14 -69 4 -101 -24 -9 -9 -23 -17 -32 -18 -8 -1 -23 -9 -33
-18 -10 -9 -34 -24 -53 -35 -64 -34 -91 -56 -106 -86 -15 -27 -14 -31 5 -51
28 -30 29 -56 1 -31 -16 14 -23 16 -32 7 -9 -9 -5 -19 17 -42 20 -21 26 -33
19 -40 -12 -12 -46 -2 -38 11 3 5 1 9 -5 9 -5 0 -12 8 -14 18 -4 13 -5 12 -6
-5 -1 -22 -31 -39 -63 -34 -10 1 -18 -2 -18 -6 0 -7 -20 -8 -62 -4 -5 1 -8 8
-8 16 0 8 -4 15 -10 15 -5 0 -9 -5 -7 -12 3 -17 -57 -27 -135 -22 -60 3 -68 1
-68 -15 0 -29 -57 -16 -64 15 -11 41 -49 25 -76 -31 l-14 -30 -4 28 c-5 39
-20 33 -28 -10 -13 -70 -64 -138 -104 -138 -11 0 -17 -17 -23 -63 -8 -59 -18
-75 -32 -52 -12 19 -22 10 -35 -32 -18 -58 -26 -66 -61 -64 -36 3 -47 -9 -21
-23 24 -13 36 -51 16 -51 -16 0 -48 29 -56 52 -8 20 -127 48 -204 48 -56 0
-65 -3 -98 -33 -37 -34 -45 -52 -25 -59 6 -2 -4 -18 -21 -36 -17 -18 -28 -38
-24 -44 4 -6 1 -9 -5 -7 -7 3 -12 8 -11 13 1 5 -12 15 -29 22 -17 7 -31 17
-31 21 0 4 -12 22 -26 38 -25 28 -26 28 -19 6 4 -14 18 -36 31 -50 26 -28 54
-81 54 -103 0 -39 130 -167 170 -168 12 0 15 -8 12 -35 -2 -19 -9 -35 -15 -35
-6 0 -18 -7 -28 -16 -14 -13 -21 -13 -41 -3 -13 6 -20 8 -16 4 4 -4 3 -16 -3
-26 -9 -18 -11 -18 -34 -3 -24 16 -25 15 -25 -7 -1 -16 -15 -35 -40 -54 -40
-31 -59 -77 -41 -99 15 -18 17 -72 2 -89 -7 -9 -16 -28 -21 -44 l-8 -28 -1 27
c-1 29 -16 45 -26 28 -4 -6 -15 -8 -24 -5 -10 3 -24 -1 -31 -10 -10 -12 -9
-22 3 -53 19 -47 32 -154 23 -179 -6 -15 -9 -14 -19 7 -7 14 -23 26 -37 28
-14 2 -29 8 -34 13 -6 5 -14 9 -18 9 -12 0 -9 -113 6 -226 15 -116 42 -175 95
-211 40 -27 51 -29 51 -8 0 8 5 15 10 15 17 0 29 -46 23 -83 -5 -31 -2 -35 21
-41 26 -6 37 -36 14 -36 -7 0 -2 -7 10 -16 12 -8 22 -22 22 -30 0 -8 5 -13 12
-11 7 1 17 -7 22 -19 10 -22 100 -69 115 -59 5 3 15 -9 23 -25 l13 -31 5 33
c5 31 8 33 39 30 28 -2 32 0 22 12 -18 22 3 29 65 21 59 -7 66 -12 57 -43 -4
-17 -10 -20 -35 -15 -29 6 -29 5 -17 -16 16 -25 5 -49 -32 -68 -13 -7 -23 -19
-21 -28 1 -8 -18 -35 -44 -60 -52 -49 -52 -53 -1 -29 19 9 38 28 44 45 6 16
19 32 28 35 19 8 38 -14 30 -33 -3 -7 -8 -21 -12 -30 -6 -15 -4 -16 8 -6 22
18 61 100 57 121 -3 13 -7 11 -18 -12 -16 -31 -40 -46 -40 -26 0 7 10 24 23
39 16 20 30 26 54 25 43 -2 63 -11 62 -26 0 -10 -2 -10 -6 0 -2 6 -12 12 -21
12 -22 0 -44 -67 -31 -91 5 -10 6 -25 3 -33 -3 -9 -1 -16 5 -16 6 0 11 -7 11
-15 0 -8 -7 -15 -15 -15 -8 0 -17 -11 -21 -25 -7 -29 -23 -35 -87 -34 -33 1
-54 -4 -67 -16 -25 -22 -26 -37 -2 -33 14 3 17 -7 20 -64 2 -48 6 -66 15 -62
20 7 75 -51 86 -92 10 -35 23 -133 35 -269 9 -94 27 -219 34 -229 4 -6 8 -155
8 -331 2 -313 15 -625 29 -695 4 -19 13 -42 20 -50 7 -8 18 -32 24 -52 8 -25
34 -57 76 -95 l64 -58 16 -110 c39 -250 62 -358 115 -530 11 -38 25 -83 30
-100 10 -37 24 -74 68 -188 18 -49 31 -95 28 -104 -4 -10 2 -21 14 -30 30 -21
53 -72 46 -104 -4 -21 -2 -27 9 -23 29 12 36 -34 35 -247 0 -211 -4 -239 -35
-239 -22 0 -109 -42 -145 -71 -38 -29 -100 -48 -100 -30 0 17 -25 13 -44 -8
-10 -11 -50 -26 -97 -37 -74 -17 -85 -23 -142 -76 -64 -60 -75 -66 -95 -46 -8
8 -16 6 -29 -11 -10 -12 -29 -23 -42 -26 -14 -2 -37 -16 -52 -31 -15 -14 -69
-42 -120 -62 -79 -30 -107 -36 -174 -36 -68 -1 -81 -4 -87 -19 -9 -21 -35 -17
-30 4 5 20 -7 59 -18 59 -6 0 -7 -18 -4 -44 6 -41 5 -44 -22 -50 -38 -10 -151
-64 -159 -76 -3 -5 -14 -10 -23 -10 -10 0 -23 -9 -30 -20 -10 -16 -21 -19 -62
-17 -28 1 -52 7 -54 15 -7 17 -41 15 -60 -4 -9 -8 -16 -11 -16 -5 0 6 -4 11
-10 11 -19 0 -9 -15 26 -37 33 -21 64 -22 64 -1 0 5 10 8 23 6 28 -4 29 -32 0
-36 -13 -2 -25 -14 -32 -34 -10 -29 -12 -30 -53 -23 -53 9 -58 12 -58 35 0 10
-15 31 -34 48 -31 27 -33 32 -21 49 21 27 18 33 -15 33 -34 0 -37 -8 -13 -53
9 -18 17 -47 19 -65 l2 -34 -56 4 c-54 3 -57 2 -57 -20 0 -19 -8 -27 -40 -37
-173 -54 -177 -55 -226 -49 -45 6 -49 5 -49 -15 0 -11 -4 -22 -10 -22 -5 -1
-13 -2 -17 -3 -5 -1 -39 -6 -78 -10 -86 -9 -140 -23 -157 -39 -13 -13 -163
-89 -173 -88 -3 1 -29 -12 -58 -29 -30 -16 -68 -30 -85 -30 -17 0 -34 -5 -37
-10 -3 -6 -17 -7 -31 -4 -18 5 -24 2 -24 -10 0 -11 -9 -16 -31 -16 -17 0 -44
-9 -60 -21 -17 -12 -39 -19 -49 -16 -20 5 -20 -12 -20 -1464 l0 -1469 4371 0
4372 0 -7 33 c-18 83 -35 211 -40 302 -11 163 -36 374 -56 465 -11 47 -26 156
-34 242 -9 86 -23 187 -31 225 -9 37 -23 111 -31 163 -23 163 -45 264 -60 287
-8 12 -20 47 -28 76 -8 29 -28 85 -46 123 -36 80 -49 109 -63 144 -5 14 -13
33 -18 42 -5 10 -9 25 -9 35 0 9 -7 25 -17 35 -15 17 -15 18 0 18 26 0 20 14
-13 28 -21 10 -30 21 -30 38 0 13 -9 33 -20 44 -11 11 -20 26 -20 34 0 7 -9
25 -20 39 -11 14 -20 29 -20 34 0 5 -21 14 -46 21 -25 7 -54 22 -63 33 -9 11
-29 21 -46 22 -25 2 -31 7 -33 30 -3 23 0 27 19 24 12 -1 24 4 26 11 3 8 -6
12 -26 12 -17 0 -31 -4 -31 -10 0 -5 -7 -10 -15 -10 -26 0 -65 23 -65 39 0 10
-18 22 -50 32 -48 16 -49 16 -64 -5 -13 -20 -15 -20 -28 -3 -10 13 -36 19
-103 26 -108 9 -138 24 -132 63 3 23 0 28 -19 28 -12 0 -24 -6 -27 -14 -3 -7
-15 -16 -27 -19 -17 -4 -20 -2 -15 14 5 15 1 19 -22 20 -21 1 -23 3 -7 6 11 2
35 18 54 34 28 26 31 32 19 45 -8 7 -29 16 -47 20 -29 6 -32 4 -32 -19 0 -14
-7 -28 -16 -31 -22 -8 -24 -8 -24 8 0 8 -6 17 -12 19 -10 4 -10 6 0 6 7 1 12
14 12 31 0 24 -5 31 -27 35 -99 21 -122 39 -75 60 42 19 22 26 -62 23 -62 -2
-82 0 -79 9 3 7 23 14 46 16 36 3 34 4 -10 4 -37 0 -53 -5 -53 -14 0 -11 -43
-19 -74 -14 -5 1 -16 -1 -25 -5 -9 -4 -35 -8 -59 -8 -24 -1 -47 -7 -51 -15 -5
-8 -11 -9 -15 -3 -3 6 -15 8 -26 5 -11 -3 -26 0 -33 6 -10 8 -19 7 -33 -4 -10
-8 -29 -15 -41 -15 -12 0 -23 -5 -25 -11 -3 -9 -9 -9 -25 0 -12 6 -30 11 -41
11 -11 0 -25 7 -32 15 -16 19 -35 19 -55 -1 -15 -15 -15 -14 -10 9 5 17 1 34
-9 49 -9 12 -16 35 -16 50 0 34 -30 98 -46 98 -10 0 -12 26 -5 73 2 12 24 8
42 -9 20 -18 135 -28 145 -12 3 5 -1 20 -10 33 -9 13 -16 26 -16 27 0 6 86 1
107 -6 32 -10 40 13 12 35 -18 13 -24 28 -24 55 0 33 -4 39 -30 47 -16 6 -46
21 -65 34 -56 37 -94 27 -52 -15 17 -17 26 -52 13 -52 -3 0 -15 14 -26 30 -11
16 -28 30 -37 30 -11 0 -18 8 -18 19 0 30 -28 51 -66 51 -27 0 -34 -4 -34 -20
0 -11 -4 -20 -10 -20 -5 0 -10 4 -10 8 0 20 -31 7 -36 -15 -7 -25 -34 -32 -34
-8 0 8 5 15 10 15 15 0 12 36 -4 49 -7 6 -19 39 -26 73 -6 34 -18 71 -26 82
-21 30 -18 36 19 36 33 0 58 -18 70 -51 5 -14 56 -33 65 -24 6 5 -19 48 -41
73 -28 30 -101 62 -141 62 -28 0 -45 13 -117 90 -46 49 -89 90 -95 90 -6 0
-17 7 -24 15 -7 9 -15 13 -18 11 -2 -3 -16 4 -30 14 -13 11 -35 20 -47 20 -12
0 -24 3 -28 6 -3 3 -27 8 -53 10 -26 2 -55 6 -64 9 -19 6 -37 -42 -46 -123 -5
-43 -3 -51 29 -92 50 -65 137 -219 137 -244 0 -12 -7 -43 -15 -69 -9 -30 -15
-96 -16 -170 -1 -131 -8 -156 -58 -208 -30 -31 -41 -29 -41 9 0 20 -4 23 -22
18 -13 -3 -31 -6 -40 -6 -9 0 -19 -8 -21 -18 -3 -11 -5 -7 -6 10 0 15 4 30 9
33 18 11 11 57 -12 77 -16 13 -32 18 -50 14 -16 -3 -28 0 -31 7 -2 7 -13 1
-29 -16 -14 -15 -32 -27 -39 -27 -9 -1 -8 -6 6 -16 19 -14 19 -15 -9 -39 -32
-28 -46 -31 -64 -13 -7 7 -33 11 -61 9 -41 -2 -51 1 -60 18 -15 27 -14 41 4
41 8 0 15 5 15 10 0 6 -18 10 -40 10 -44 0 -52 -18 -25 -54 27 -36 19 -46 -40
-46 l-55 0 0 74 c0 41 4 86 10 100 12 32 49 36 57 6 4 -14 14 -20 35 -20 25 0
27 2 19 19 -6 10 -17 21 -26 25 -8 3 -15 15 -15 26 0 13 -10 24 -25 30 -33 12
-32 28 3 41 15 7 22 13 15 16 -16 6 -17 43 -2 43 6 0 9 9 6 20 -3 11 -2 18 2
16 4 -3 20 9 36 25 23 25 26 33 14 41 -11 7 -11 11 -1 15 6 2 12 11 12 19 0 8
5 14 10 14 6 0 10 11 10 24 0 21 6 25 38 29 20 2 9 3 -25 0 -39 -2 -64 0 -64
7 -4 25 -4 30 4 30 4 0 7 -3 6 -7 -1 -10 34 -21 49 -16 18 7 15 20 -7 26 -28
7 -16 47 24 77 19 14 37 36 41 50 6 20 8 21 11 7 3 -9 8 -17 13 -17 13 0 22
37 15 60 -4 14 -2 20 8 20 8 0 21 7 28 16 11 14 11 21 -3 45 -16 28 -16 29 2
29 16 0 20 7 20 35 0 32 2 34 19 23 15 -9 25 -9 43 -1 22 11 22 12 2 12 -26 1
-36 23 -28 57 5 19 11 23 25 19 13 -4 19 -1 19 9 0 9 -5 16 -11 16 -6 0 -3 7
5 16 9 8 16 22 16 30 0 8 4 14 9 14 5 0 12 16 15 36 4 19 12 37 19 40 18 6 13
65 -6 79 -10 7 -17 26 -17 47 0 28 5 37 21 41 30 8 21 42 -11 42 -19 0 -25 -5
-24 -22 0 -13 -3 -23 -8 -23 -4 0 -8 5 -8 10 0 6 -18 10 -41 10 -24 0 -38 -4
-34 -10 4 -6 -12 -10 -39 -10 -38 0 -46 3 -46 19 0 10 7 21 15 25 9 3 15 18
15 34 0 16 -7 35 -15 42 -8 7 -15 19 -15 26 0 8 7 14 15 14 19 0 19 -1 -10 61
-16 35 -21 57 -15 63 6 6 10 34 10 63 0 29 4 53 9 53 6 0 10 36 9 80 0 44 -3
80 -8 80 -4 0 -18 10 -32 22 -45 41 -68 58 -76 58 -5 0 -9 6 -9 13 0 18 -62
107 -76 108 -7 1 -20 0 -30 0 -9 -1 -24 5 -33 14 -9 9 -23 14 -31 11 -8 -4
-28 3 -44 15 -16 11 -36 18 -44 15 -8 -3 -17 -1 -20 4 -4 6 -18 10 -33 10 -47
0 -104 26 -142 64 -33 32 -40 35 -63 27 -20 -8 -30 -7 -42 5 -24 25 -18 66 21
130 20 32 42 75 49 94 7 19 19 50 26 68 9 21 10 35 4 40 -6 4 -23 24 -38 44
-15 21 -31 37 -35 37 -24 -4 -42 3 -42 15 0 8 -15 17 -37 21 -21 3 -49 13 -62
22 -28 18 -93 22 -99 5 -2 -7 -22 -12 -45 -12 -41 0 -121 -22 -113 -31 2 -2
-21 -4 -51 -4 -50 0 -59 3 -94 37 -21 20 -47 42 -59 48 -11 6 -20 17 -20 25 0
8 -12 18 -27 21 -16 4 -36 14 -46 22 -9 8 -20 12 -24 9 -3 -4 -21 3 -40 14
-43 27 -99 28 -175 4 -48 -15 -64 -16 -95 -7 -71 22 -72 25 -18 87 46 54 82
78 115 75 8 0 34 -2 58 -4 38 -2 44 0 61 30 16 26 18 44 14 96 -3 36 -12 71
-21 81 -13 15 -14 20 -3 27 10 5 12 18 7 44 -4 20 -3 36 2 36 11 0 32 45 32
69 0 10 7 25 16 32 9 8 25 32 35 55 9 23 22 45 28 48 5 4 8 13 4 21 -9 25 20
108 40 113 12 3 16 10 12 23 -4 12 1 21 15 29 12 6 20 21 20 35 0 16 6 25 15
25 8 0 16 5 16 10 1 6 2 15 3 20 0 6 27 44 59 85 48 62 63 75 86 75 33 0 84
-51 108 -109 9 -20 44 -96 79 -168 35 -73 64 -137 64 -142 0 -10 160 -332 170
-341 3 -3 14 -32 25 -65 26 -76 16 -132 -23 -137 l-25 -3 25 -30 c15 -17 41
-60 59 -95 44 -87 79 -112 79 -57 0 29 19 57 27 40 2 -7 13 -13 24 -13 10 0
19 -4 19 -10 0 -19 36 -10 54 15 21 28 36 32 36 10 0 -8 7 -15 15 -15 8 0 15
-4 15 -10 0 -16 27 -11 34 6 8 20 -1 34 -20 34 -8 0 -14 10 -14 25 0 27 9 32
27 14 8 -8 13 -8 17 0 4 6 0 11 -8 11 -12 0 -16 11 -16 50 0 28 -4 50 -9 50
-5 0 -11 14 -13 30 -4 29 -4 30 41 32 25 0 53 1 61 0 16 -2 252 -21 310 -26
19 -2 107 1 195 5 129 6 176 13 241 33 81 26 152 69 189 114 52 65 105 187
140 322 33 129 47 170 56 165 5 -4 9 -19 9 -35 0 -20 7 -33 21 -41 27 -14 36
-1 45 64 4 26 11 50 15 53 5 3 9 16 9 30 0 14 5 35 11 46 15 28 37 133 44 214
6 70 29 130 58 154 14 11 19 33 22 86 3 74 13 103 47 140 10 12 21 39 24 60 7
47 24 94 34 94 4 0 31 31 61 70 30 38 60 69 68 70 8 0 37 -23 64 -51 l50 -52
65 9 c58 8 67 12 81 39 24 44 129 145 151 145 19 0 36 32 25 50 -3 6 0 13 8
16 12 4 25 30 31 64 1 3 5 10 9 17 23 36 -3 176 -30 166 -21 -8 -74 55 -63 76
33 66 34 71 20 95 -7 14 -10 32 -7 40 4 9 1 16 -6 16 -16 0 -87 72 -87 88 0 7
-7 12 -15 12 -19 0 -19 13 0 50 13 26 21 30 55 30 21 0 42 5 45 10 4 6 -6 10
-24 10 -16 0 -34 6 -38 13 -4 8 -16 16 -25 20 -27 10 -22 30 15 65 17 17 38
38 44 46 7 8 20 19 29 24 15 9 32 58 41 122 3 24 1 31 -5 21 -6 -8 -20 -12
-36 -9 -30 6 -41 -5 -51 -49 -13 -62 -65 -33 -65 36 0 16 -5 33 -10 36 -6 4
-9 19 -8 33 1 15 -1 33 -5 39 -4 6 0 13 8 17 8 3 15 14 15 25 0 11 4 21 8 23
17 6 22 55 7 68 -11 9 -19 7 -36 -9 -13 -12 -27 -21 -31 -21 -13 0 -56 49 -63
71 -4 11 -11 19 -16 19 -5 0 -9 7 -9 15 0 8 -4 15 -9 15 -5 0 -12 11 -15 25
-4 14 -23 44 -44 67 -20 22 -36 43 -34 44 1 2 2 12 2 22 0 29 -48 41 -92 23
-38 -14 -50 -31 -23 -31 21 0 19 -16 -7 -39 -23 -22 -38 -19 -38 8 0 9 -4 21
-10 27 -5 5 -21 31 -34 58 l-25 49 -7 -29 c-11 -46 -54 -72 -54 -33 0 34 -17
12 -24 -31 -5 -35 -3 -44 19 -66 14 -14 25 -33 24 -42 0 -10 -3 -12 -6 -4 -6
15 -30 16 -35 2 -2 -6 -16 -8 -35 -4 -41 8 -47 33 -22 92 16 36 18 51 9 75
-13 38 -13 40 4 34 19 -7 51 17 42 31 -4 7 -16 12 -27 12 -17 0 -18 3 -8 21 9
17 7 25 -10 43 -12 12 -21 26 -21 32 0 5 -16 22 -35 37 -19 15 -35 37 -35 48
0 11 -4 18 -9 15 -5 -3 -14 15 -20 40 -11 42 -51 102 -51 76 0 -14 -36 -16
-45 -2 -3 5 -23 14 -43 20 -35 9 -39 14 -52 62 -8 29 -13 61 -11 70 1 10 -25
38 -69 73 -38 32 -70 62 -70 69 -1 23 -49 69 -84 81 -33 12 -38 11 -51 -8 -12
-17 -15 -18 -15 -5 0 20 -20 28 -68 28 -45 0 -57 8 -65 40 -7 26 -73 66 -80
47 -2 -6 -11 -5 -26 2 -22 12 -22 13 -5 32 24 27 12 33 -32 14 -20 -8 -45 -13
-56 -9 -13 4 -18 0 -18 -12 0 -35 -62 -59 -74 -29 -3 8 -9 14 -13 13 -4 -1
-37 7 -72 18 -45 13 -67 26 -74 42 -12 26 -52 30 -65 6 -9 -15 -12 -15 -40 2
-40 23 -49 14 -28 -27 20 -41 20 -42 -3 -36 -15 4 -18 1 -13 -12 8 -22 24 -32
45 -25 9 3 17 1 17 -5 0 -6 -9 -11 -19 -11 -10 0 -21 -6 -24 -14 -3 -8 -19
-17 -36 -21 -17 -4 -31 -11 -31 -16 0 -5 -6 -9 -12 -9 -24 0 -40 18 -47 51
l-7 33 -22 -24 c-22 -24 -22 -24 -2 -32 11 -4 20 -16 20 -27 0 -11 3 -28 6
-38 3 -10 2 -14 -3 -8 -27 34 -86 55 -156 55 -40 0 -82 3 -94 6 -26 7 -31 24
-8 24 8 0 15 5 15 11 0 7 7 17 14 23 8 6 18 23 22 38 5 21 2 29 -12 35 -10 4
-19 2 -22 -5 -4 -14 -42 -17 -42 -4 0 11 -35 52 -43 52 -4 0 -4 -7 -1 -15 8
-20 -43 -40 -62 -24 -30 25 -49 149 -25 164 4 2 29 -7 56 -20 27 -14 51 -23
53 -20 3 3 1 5 -5 5 -5 0 -15 11 -21 25 -10 21 -17 24 -37 19 -32 -8 -44 19
-20 45 15 18 15 20 -1 29 -9 5 -25 7 -35 5 -11 -3 -25 -1 -32 5 -6 6 -34 13
-60 17 -31 5 -51 14 -58 26 -13 26 -37 24 -50 -5z m-831 -364 c2 -14 11 -22
23 -22 10 0 19 -7 19 -15 0 -19 9 -19 30 0 16 14 18 14 23 0 4 -10 0 -15 -12
-15 -10 0 -24 -7 -31 -15 -9 -11 -17 -12 -32 -4 -18 9 -19 8 -13 -10 3 -12 3
-21 -2 -20 -22 4 -33 -3 -33 -21 0 -13 -7 -20 -20 -20 -11 0 -20 -6 -21 -12 0
-7 -13 -23 -28 -35 l-28 -22 -42 20 c-45 21 -49 30 -26 49 12 10 13 15 4 20
-21 14 25 45 96 66 66 19 99 44 56 44 -30 0 -36 19 -9 29 31 13 42 9 46 -17z
m2185 -92 c14 0 42 -58 33 -67 -3 -4 -15 3 -26 15 -23 24 -29 26 -49 13 -10
-7 -7 -12 15 -22 17 -8 30 -24 32 -37 4 -23 16 -29 27 -12 9 14 70 3 123 -23
57 -28 53 -40 -10 -32 l-53 7 19 -20 c18 -21 18 -21 -39 -37 -68 -20 -76 -15
-82 52 -2 26 -8 49 -13 51 -5 2 -20 12 -35 23 -25 20 -27 38 -10 81 7 17 47
29 53 16 2 -5 9 -8 15 -8z m-1373 -105 c20 -10 32 -27 39 -53 15 -52 15 -51
-24 -45 -19 3 -42 2 -52 -2 -25 -11 -45 -6 -70 18 -33 30 -29 40 25 70 56 32
47 30 82 12z m-2050 -490 c0 -7 16 -27 35 -44 36 -32 45 -47 21 -38 -8 3 -13
-1 -12 -10 1 -10 -15 -22 -42 -31 -28 -11 -41 -21 -37 -30 2 -7 0 -10 -5 -7
-6 3 -25 1 -43 -5 -23 -9 -47 -9 -87 -2 -40 7 -57 7 -62 -1 -5 -8 -10 -4 -14
11 -4 12 -10 22 -15 22 -5 0 -9 7 -9 16 0 11 6 14 21 9 20 -7 21 -5 15 28 -6
32 -3 40 30 72 35 35 38 36 88 30 28 -4 59 -9 69 -11 11 -4 17 0 17 12 0 13 3
14 15 4 8 -7 15 -18 15 -25z m3343 -1343 c64 -51 127 -129 127 -159 0 -12 6
-24 13 -26 9 -4 9 -8 -2 -15 -7 -5 -9 -12 -5 -14 14 -8 94 3 94 13 0 4 6 6 14
3 8 -3 24 0 36 6 15 8 25 8 34 1 7 -6 27 -11 44 -13 18 -1 32 -8 32 -14 0 -15
37 -39 73 -48 35 -8 59 -58 46 -93 -13 -35 17 -43 44 -11 22 24 74 55 80 47
15 -23 29 -85 31 -134 4 -85 15 -125 36 -125 13 0 16 -6 12 -26 -3 -18 -1 -25
6 -20 10 6 13 -11 13 -79 0 -16 -1 -41 -1 -55 0 -28 34 -59 65 -60 25 0 59
-20 35 -20 -8 0 -42 5 -75 10 -329 56 -684 100 -813 100 -37 0 -74 5 -82 10
-12 8 -9 10 13 10 15 0 27 6 28 13 0 9 2 9 6 -1 2 -6 8 -10 12 -7 8 4 149 6
206 2 18 -1 29 3 28 10 -2 7 10 9 37 6 33 -5 40 -3 40 11 0 12 10 16 40 16 22
0 40 -5 40 -10 0 -6 17 -17 38 -26 20 -9 60 -26 87 -39 57 -27 143 -40 165
-25 12 8 13 13 3 29 -8 12 -9 22 -3 26 9 6 -4 55 -19 65 -14 10 -47 65 -66
110 -25 59 -39 77 -105 133 -30 26 -62 54 -71 62 -9 8 -20 15 -25 15 -5 1 -20
10 -34 21 -23 19 -23 21 -6 31 16 9 16 11 0 29 -13 14 -21 16 -35 8 -12 -6
-37 -7 -68 -1 -28 5 -56 5 -63 1 -36 -23 -378 -4 -378 21 0 4 -8 15 -18 26
-38 41 -35 64 16 111 26 24 56 46 67 49 11 4 29 16 40 28 17 18 29 21 83 18
40 -3 72 -10 85 -20z m-1173 -167 c0 -18 36 -20 44 -2 3 6 3 1 0 -13 -4 -22 0
-27 28 -37 43 -15 87 -6 98 21 7 17 9 12 9 -21 1 -36 4 -43 21 -43 28 0 28
-50 1 -57 -26 -7 -40 -47 -40 -108 0 -27 -3 -51 -8 -52 -29 -11 -35 -21 -22
-40 7 -13 9 -27 4 -39 -8 -18 -9 -17 -12 4 -5 27 -30 28 -60 3 -27 -22 -29
-31 -8 -31 17 0 17 -2 9 -24 -3 -8 -21 -20 -40 -26 -19 -6 -34 -16 -34 -21 0
-20 -54 -8 -79 19 l-26 27 -3 -25 c-2 -13 1 -26 7 -28 13 -4 15 -32 3 -32 -4
0 -16 23 -26 51 -10 28 -25 53 -32 56 -9 3 -14 20 -14 44 0 21 -4 39 -10 39
-5 0 -10 -9 -10 -20 0 -11 -7 -20 -15 -20 -23 0 -65 30 -65 46 0 7 -11 21 -25
30 -14 9 -25 23 -25 30 0 19 19 18 26 -1 8 -19 24 -19 24 0 0 9 -16 23 -35 32
-19 9 -35 20 -35 24 0 3 14 12 31 19 23 10 29 18 25 33 -4 16 2 35 22 66 1 3
23 4 48 2 34 -1 45 1 41 11 -2 7 -10 12 -17 10 -6 -1 -10 3 -8 10 3 9 19 12
46 10 26 -2 42 1 42 7 0 6 18 11 40 11 22 0 40 5 40 10 0 6 -7 10 -15 10 -14
0 -13 3 2 24 14 18 22 22 36 15 9 -6 17 -16 17 -24z m1440 -678 c100 -12 235
-52 273 -83 69 -54 73 -77 53 -316 -8 -105 -56 -351 -75 -388 -4 -8 -16 -42
-25 -75 -28 -92 -37 -114 -73 -166 -18 -27 -33 -53 -33 -57 0 -11 -96 -102
-107 -102 -4 0 -53 -10 -108 -21 -79 -17 -137 -22 -275 -22 -200 -1 -337 13
-476 49 -162 41 -239 85 -291 167 -32 51 -23 58 19 14 30 -31 67 -57 83 -57 3
0 -1 13 -10 30 -8 16 -15 37 -15 48 0 10 -11 28 -24 39 -13 12 -27 35 -31 52
-4 17 -10 31 -14 31 -3 0 -15 20 -26 44 -11 24 -25 42 -31 39 -6 -2 -11 2 -11
9 0 7 -4 27 -7 43 -6 26 -6 27 5 11 11 -18 12 -17 25 10 11 26 12 27 13 7 1
-17 7 -23 25 -23 33 0 96 -28 103 -46 3 -8 13 -14 22 -13 20 3 93 -31 104 -48
4 -7 16 -13 27 -13 10 0 25 -7 34 -15 8 -8 30 -15 48 -15 18 0 42 -8 53 -16
15 -11 39 -15 90 -13 39 2 76 0 83 -5 16 -9 284 2 292 12 3 4 22 16 43 27 21
11 55 35 75 52 20 18 40 33 43 33 3 0 11 11 19 24 7 14 23 27 36 30 13 4 31
19 41 34 9 15 18 29 20 31 1 2 30 11 64 20 42 11 68 24 80 41 21 28 42 140 26
140 -5 0 -4 7 3 15 6 8 10 20 7 27 -2 7 0 21 4 30 7 12 4 18 -11 23 -11 3 -20
14 -20 24 0 10 -7 24 -15 31 -8 7 -15 21 -15 33 0 23 -35 83 -65 112 -11 11
-39 29 -60 40 -46 23 -74 53 -75 77 0 23 -16 32 -24 13 -8 -23 -55 0 -56 28 0
4 10 7 23 7 12 0 29 4 36 9 8 5 22 6 30 2 9 -5 41 -11 71 -14z m-3407 -254 c8
-21 36 -66 61 -100 45 -60 54 -89 40 -140 -5 -19 -9 -20 -37 -12 -18 6 -51 10
-74 10 -23 0 -46 6 -52 12 -15 18 -16 139 -2 166 7 13 13 45 13 72 -1 44 1 48
17 39 10 -5 25 -26 34 -47z m1481 -14 c20 -58 0 -78 -41 -39 -19 17 -23 17
-34 4 -10 -12 -10 -22 -1 -46 13 -36 9 -50 -23 -65 -22 -10 -26 -9 -30 10 -7
31 -8 64 -7 125 l2 53 61 -3 c60 -3 61 -4 73 -39z m-1245 -701 c95 -42 364
-95 392 -77 7 4 25 2 41 -3 27 -10 292 -5 383 7 32 4 36 3 17 -5 -86 -37 -444
-37 -636 0 -111 22 -236 60 -298 91 -31 16 -78 65 -78 82 0 3 30 -12 66 -35
37 -22 88 -49 113 -60z m1741 -2418 c0 -13 5 -18 15 -14 11 5 15 -2 16 -27 1
-24 3 -27 6 -11 2 12 9 22 15 22 6 0 4 8 -5 18 -10 10 -17 21 -17 25 0 13 80
4 97 -12 10 -10 22 -17 28 -17 5 1 11 -8 14 -19 2 -11 10 -29 17 -40 19 -27
18 -40 -3 -24 -9 8 -24 13 -35 11 -19 -3 -25 13 -8 23 13 8 13 35 0 35 -5 0
-23 -15 -40 -32 -55 -61 -75 -78 -88 -78 -9 0 -12 6 -8 15 3 8 1 15 -4 15 -6
0 -10 18 -10 40 0 22 -4 40 -10 40 -5 0 -10 11 -10 25 0 16 6 25 15 25 8 0 15
-9 15 -20z"/>
<path d="M6557 6610 c-51 -46 -57 -56 -57 -91 0 -21 4 -39 8 -39 11 0 28 -80
43 -202 9 -76 14 -95 26 -91 24 9 43 60 43 117 0 30 5 67 10 82 6 15 11 66 11
113 1 119 1 125 -14 145 -12 17 -17 14 -70 -34z"/>
<path d="M6355 6329 c-14 -39 -20 -139 -10 -189 6 -35 7 -80 2 -123 -7 -57 -6
-72 9 -94 l17 -27 17 21 c9 12 25 23 36 25 18 3 19 12 17 118 -2 63 -3 122 -4
130 0 8 2 24 5 35 8 25 -80 128 -89 104z"/>
</g>
</svg>
